<svg id="Layer_1" data-name="Layer 1" xmlns="http://www.w3.org/2000/svg" viewBox="0 0 1497.86 179.54"><defs><style>.cls-1,.cls-2{fill:#fcfcfc;}.cls-2{font-size:95px;font-family:FashionFetish, Fashion Fetish;}.cls-3,.cls-4,.cls-5{font-family:FashionFetishHeavy, Fashion Fetish Heavy;}.cls-3{letter-spacing:-0.07em;}.cls-4{letter-spacing:-0.55em;}</style></defs><title>logo</title><path class="cls-1" d="M173.83,34.88a9.19,9.19,0,1,1-9.18-9.3A9.24,9.24,0,0,1,173.83,34.88Z"/><path class="cls-1" d="M78.54,140.63a9.19,9.19,0,1,1-9.19-9.3A9.24,9.24,0,0,1,78.54,140.63Z"/><path class="cls-1" d="M158.58,78.64a43,43,0,0,0-5.83-14.25l5.5-5.57L145.55,46l-5.49,5.56A42.12,42.12,0,0,0,126,45.64V37.77H108v7.87a42.12,42.12,0,0,0-14.08,5.9L88.45,46,75.75,58.82l5.5,5.57a43,43,0,0,0-5.83,14.25h-7.8V96.81h7.81a43,43,0,0,0,5.83,14.25l-5.52,5.59L88.42,129.5l5.52-5.59a41.92,41.92,0,0,0,14.08,5.9v7.92h18v-7.92a41.92,41.92,0,0,0,14.08-5.9l5.52,5.59,12.69-12.85-5.52-5.59a43,43,0,0,0,5.83-14.25h7.81V78.64ZM117,108.86a21.11,21.11,0,1,1,20.85-21.11A21,21,0,0,1,117,108.86Z"/><path class="cls-1" d="M69.35,128.42a11.87,11.87,0,0,0-5.79,1.5A69.29,69.29,0,0,1,49.24,87.75c0-37.81,30.4-68.58,67.76-68.58a67.62,67.62,0,0,1,13.49,1.36,2.9,2.9,0,0,0,1.14-5.69A72.91,72.91,0,0,0,65,35.15,74.37,74.37,0,0,0,43.5,87.75a75.12,75.12,0,0,0,15.82,46.11,12.32,12.32,0,0,0,1.51,15.39,11.94,11.94,0,0,0,17,0,12.31,12.31,0,0,0,0-17.26A11.92,11.92,0,0,0,69.35,128.42Zm4.47,16.73a6.27,6.27,0,0,1-8.93,0,6.46,6.46,0,0,1,0-9.05,6.27,6.27,0,0,1,8.93,0,6.46,6.46,0,0,1,0,9.05Z"/><path class="cls-1" d="M174.68,41.65a12.34,12.34,0,0,0-1.51-15.4,12,12,0,0,0-17,0,12.31,12.31,0,0,0,0,17.26,12,12,0,0,0,14.32,2.08,69.29,69.29,0,0,1,14.32,42.16c0,37.82-30.4,68.58-67.76,68.58A68,68,0,0,1,103.63,155a2.86,2.86,0,0,0-3.37,2.28,2.91,2.91,0,0,0,2.25,3.42A73,73,0,0,0,169,140.35a75,75,0,0,0,5.71-98.7Zm-14.5-2.25a6.45,6.45,0,0,1,0-9,6.27,6.27,0,0,1,8.93,0,6.46,6.46,0,0,1,0,9,6.27,6.27,0,0,1-8.93,0Z"/><path class="cls-1" d="M105.15,137.73a2.89,2.89,0,0,0,2.87,2.91h18a2.89,2.89,0,0,0,2.87-2.91V132.1a44.64,44.64,0,0,0,10.77-4.52l3.93,4a2.85,2.85,0,0,0,4.06,0L160.3,118.7a2.92,2.92,0,0,0,0-4.1l-3.92-4a45.62,45.62,0,0,0,4.46-10.9h5.55a2.89,2.89,0,0,0,2.87-2.91V78.64a2.89,2.89,0,0,0-2.87-2.9h-5.55a45.69,45.69,0,0,0-4.46-10.91l3.9-3.95a2.94,2.94,0,0,0,.84-2.06,2.9,2.9,0,0,0-.84-2l-12.7-12.85a2.85,2.85,0,0,0-4.06,0l-3.9,3.94a45,45,0,0,0-10.77-4.52V37.77a2.89,2.89,0,0,0-2.87-2.9H108a2.89,2.89,0,0,0-2.87,2.9v5.58a45,45,0,0,0-10.77,4.52l-3.9-3.94a2.85,2.85,0,0,0-4.06,0L73.72,56.77a2.9,2.9,0,0,0-.84,2,2.94,2.94,0,0,0,.84,2.06l3.9,3.95a45.53,45.53,0,0,0-4.46,10.91H67.62a2.89,2.89,0,0,0-2.87,2.9V96.81a2.94,2.94,0,0,0,.84,2.06,2.88,2.88,0,0,0,2,.85h5.55a45.62,45.62,0,0,0,4.46,10.9l-3.92,4a2.92,2.92,0,0,0,0,4.1l12.69,12.86a2.88,2.88,0,0,0,2,.85h0a2.88,2.88,0,0,0,2-.85l3.93-4a44.64,44.64,0,0,0,10.77,4.52ZM95.5,121.47a2.86,2.86,0,0,0-3.59.38l-3.49,3.54-8.63-8.74,3.49-3.53a2.93,2.93,0,0,0,.38-3.64A40.11,40.11,0,0,1,78.22,96.2a2.87,2.87,0,0,0-2.8-2.3H70.48V81.55h4.93a2.87,2.87,0,0,0,2.8-2.3A40.2,40.2,0,0,1,83.66,66a2.92,2.92,0,0,0-.38-3.63l-3.47-3.52,8.64-8.73,3.46,3.51A2.85,2.85,0,0,0,95.5,54a39.05,39.05,0,0,1,13.13-5.51,2.89,2.89,0,0,0,2.26-2.84v-5H123.1v5a2.9,2.9,0,0,0,2.27,2.84A39.23,39.23,0,0,1,138.5,54a2.82,2.82,0,0,0,3.58-.38l3.47-3.51,8.64,8.73-3.47,3.52a2.92,2.92,0,0,0-.38,3.63,40.2,40.2,0,0,1,5.44,13.28,2.87,2.87,0,0,0,2.8,2.3h4.94V93.9h-4.94a2.87,2.87,0,0,0-2.8,2.3,40.11,40.11,0,0,1-5.44,13.28,2.93,2.93,0,0,0,.38,3.64l3.49,3.53-8.63,8.74-3.49-3.54a2.86,2.86,0,0,0-3.59-.38,39.23,39.23,0,0,1-13.13,5.5,2.9,2.9,0,0,0-2.27,2.84v5H110.89v-5a2.9,2.9,0,0,0-2.26-2.84A39,39,0,0,1,95.5,121.47Z"/><path class="cls-1" d="M140.72,87.75a23.72,23.72,0,1,0-23.72,24A23.89,23.89,0,0,0,140.72,87.75Zm-41.7,0A18,18,0,1,1,117,106,18.11,18.11,0,0,1,99,87.75Z"/><path class="cls-1" d="M143.44,24.35a2.9,2.9,0,0,0,2-.85,2.93,2.93,0,0,0,0-4.11,2.9,2.9,0,0,0-2-.85,2.86,2.86,0,0,0-2,.85,2.93,2.93,0,0,0,0,4.11A2.86,2.86,0,0,0,143.44,24.35Z"/><text class="cls-2" transform="translate(217.69 130.65)">PT. INTERINDO <tspan class="cls-3" x="800.37" y="0">T</tspan><tspan class="cls-4" x="847.87" y="0">O</tspan><tspan class="cls-5" x="888.24" y="0">OLING</tspan></text><path class="cls-1" d="M88.83,155.6a2.86,2.86,0,0,0,2-.85,2.93,2.93,0,0,0,0-4.11,2.85,2.85,0,0,0-4.06,0,2.93,2.93,0,0,0,0,4.11A2.88,2.88,0,0,0,88.83,155.6Z"/></svg>