<svg id="Layer_1" data-name="Layer 1" xmlns="http://www.w3.org/2000/svg" viewBox="0 0 167.53 179.41"><defs><style>.cls-1{fill:#ffc600;}.cls-2{fill:#f9f9f9;}</style></defs><title>Artboard 3</title><path class="cls-1" d="M139.33,34.84a9.19,9.19,0,1,1-9.18-9.3A9.24,9.24,0,0,1,139.33,34.84Z"/><path class="cls-1" d="M44,140.59a9.19,9.19,0,1,1-9.19-9.3A9.25,9.25,0,0,1,44,140.59Z"/><path class="cls-1" d="M124.08,78.6a43,43,0,0,0-5.83-14.25l5.5-5.57-12.7-12.84-5.49,5.56a42.33,42.33,0,0,0-14.08-5.9V37.73h-18V45.6a42.33,42.33,0,0,0-14.08,5.9L54,45.94,41.25,58.78l5.5,5.57A43,43,0,0,0,40.92,78.6h-7.8V96.77h7.81A42.82,42.82,0,0,0,46.75,111l-5.52,5.59,12.69,12.85,5.52-5.59a42.14,42.14,0,0,0,14.08,5.91v7.92h18v-7.92a42.14,42.14,0,0,0,14.08-5.91l5.52,5.59,12.69-12.85L118.25,111a42.82,42.82,0,0,0,5.83-14.25h7.81V78.6ZM82.5,108.82a21.11,21.11,0,1,1,20.85-21.11A21,21,0,0,1,82.5,108.82Z"/><path class="cls-2" d="M34.85,128.38a11.87,11.87,0,0,0-5.79,1.5A69.29,69.29,0,0,1,14.74,87.71c0-37.81,30.4-68.58,67.76-68.58A67.62,67.62,0,0,1,96,20.49a2.87,2.87,0,0,0,3.39-2.27,2.91,2.91,0,0,0-2.25-3.42,72.91,72.91,0,0,0-66.6,20.31A74.37,74.37,0,0,0,9,87.71a75.12,75.12,0,0,0,15.82,46.11,12.33,12.33,0,0,0,1.51,15.4,12,12,0,0,0,17.05,0,12.31,12.31,0,0,0,0-17.26A11.89,11.89,0,0,0,34.85,128.38Zm4.47,16.73a6.27,6.27,0,0,1-8.93,0,6.45,6.45,0,0,1,0-9,6.24,6.24,0,0,1,8.93,0,6.45,6.45,0,0,1,0,9Z"/><path class="cls-2" d="M140.18,41.61a12.34,12.34,0,0,0-1.51-15.4,12,12,0,0,0-17,0,12.31,12.31,0,0,0,0,17.26,11.94,11.94,0,0,0,14.32,2.08,69.29,69.29,0,0,1,14.32,42.16c0,37.82-30.4,68.58-67.76,68.58A68,68,0,0,1,69.13,155a2.87,2.87,0,0,0-3.37,2.28A2.91,2.91,0,0,0,68,160.66a73,73,0,0,0,66.46-20.34,75.06,75.06,0,0,0,5.71-98.71Zm-14.5-2.25a6.45,6.45,0,0,1,0-9,6.27,6.27,0,0,1,8.93,0,6.46,6.46,0,0,1,0,9,6.27,6.27,0,0,1-8.93,0Z"/><path class="cls-2" d="M70.65,137.7a2.89,2.89,0,0,0,2.87,2.9h18a2.89,2.89,0,0,0,2.87-2.9v-5.64a44.64,44.64,0,0,0,10.77-4.52l3.93,4a2.85,2.85,0,0,0,4.06,0l12.69-12.85a2.93,2.93,0,0,0,0-4.11l-3.92-4a45.62,45.62,0,0,0,4.46-10.9h5.55a2.89,2.89,0,0,0,2.87-2.91V78.6a2.89,2.89,0,0,0-2.87-2.9h-5.55a45.69,45.69,0,0,0-4.46-10.91l3.9-4a2.93,2.93,0,0,0,0-4.11l-12.7-12.84a2.84,2.84,0,0,0-4.06,0l-3.9,3.94a45,45,0,0,0-10.77-4.52V37.73a2.89,2.89,0,0,0-2.87-2.9h-18a2.89,2.89,0,0,0-2.87,2.9v5.58a45,45,0,0,0-10.77,4.52L56,43.89a2.84,2.84,0,0,0-4.06,0L39.22,56.73a2.93,2.93,0,0,0,0,4.11l3.9,4A45.69,45.69,0,0,0,38.66,75.7H33.12a2.89,2.89,0,0,0-2.87,2.9V96.77a2.94,2.94,0,0,0,.84,2.06,2.88,2.88,0,0,0,2,.85h5.55a45.62,45.62,0,0,0,4.46,10.9l-3.92,4a2.93,2.93,0,0,0,0,4.11l12.69,12.85a2.88,2.88,0,0,0,2,.85h0a2.88,2.88,0,0,0,2-.85l3.93-4a44.64,44.64,0,0,0,10.77,4.52ZM61,121.43a2.85,2.85,0,0,0-3.59.39l-3.49,3.53-8.63-8.74,3.49-3.53a2.92,2.92,0,0,0,.38-3.63,40.25,40.25,0,0,1-5.44-13.29,2.87,2.87,0,0,0-2.8-2.29H36V81.51h4.93a2.87,2.87,0,0,0,2.8-2.3,40.29,40.29,0,0,1,5.44-13.28,2.92,2.92,0,0,0-.38-3.63l-3.47-3.51L54,50.05l3.46,3.51A2.85,2.85,0,0,0,61,54a39.05,39.05,0,0,1,13.13-5.51,2.89,2.89,0,0,0,2.26-2.84v-5H88.6v5a2.9,2.9,0,0,0,2.27,2.84A39.05,39.05,0,0,1,104,54a2.84,2.84,0,0,0,3.58-.39l3.47-3.51,8.64,8.74-3.47,3.51a2.92,2.92,0,0,0-.38,3.63,40.29,40.29,0,0,1,5.44,13.28,2.87,2.87,0,0,0,2.8,2.3H129V93.87h-4.94a2.87,2.87,0,0,0-2.8,2.29,40.11,40.11,0,0,1-5.44,13.28,2.93,2.93,0,0,0,.38,3.64l3.49,3.53-8.63,8.74-3.49-3.53a2.85,2.85,0,0,0-3.59-.39,39,39,0,0,1-13.13,5.5,2.91,2.91,0,0,0-2.27,2.85v5H76.39v-5a2.91,2.91,0,0,0-2.26-2.85A39,39,0,0,1,61,121.43Z"/><path class="cls-2" d="M106.22,87.71a23.72,23.72,0,1,0-23.72,24A23.89,23.89,0,0,0,106.22,87.71Zm-41.7,0a18,18,0,1,1,18,18.2A18.11,18.11,0,0,1,64.52,87.71Z"/><path class="cls-2" d="M108.94,24.31a2.9,2.9,0,0,0,2-.85,2.93,2.93,0,0,0,0-4.11,2.9,2.9,0,0,0-2-.85,2.86,2.86,0,0,0-2,.85,2.93,2.93,0,0,0,0,4.11A2.86,2.86,0,0,0,108.94,24.31Z"/><path class="cls-2" d="M54.33,155.56a2.86,2.86,0,0,0,2-.85,2.93,2.93,0,0,0,0-4.11,2.85,2.85,0,0,0-4.06,0,2.93,2.93,0,0,0,0,4.11A2.88,2.88,0,0,0,54.33,155.56Z"/></svg>